<?xml version="1.0" encoding="UTF-8" standalone="no"?>
<!DOCTYPE svg PUBLIC "-//W3C//DTD SVG 1.1//EN"
 "http://www.w3.org/Graphics/SVG/1.1/DTD/svg11.dtd">
<!-- Generated by graphviz version 2.26.0 (20091210.2329)
 -->
<!-- Title: G Pages: 1 -->
<svg width="796pt" height="1391pt"
 viewBox="0.00 0.00 796.00 1391.00" xmlns="http://www.w3.org/2000/svg" xmlns:xlink="http://www.w3.org/1999/xlink">
<g id="graph1" class="graph" transform="scale(1 1) rotate(0) translate(4 1387)">
<title>G</title>
<polygon fill="white" stroke="white" points="-4,5 -4,-1387 793,-1387 793,5 -4,5"/>
<g id="graph2" class="cluster"><title>cluster_Klein</title>
<polyline fill="none" stroke="gray" points="274,-214 768,-214 "/>
<path fill="none" stroke="gray" d="M768,-214C774,-214 780,-220 780,-226"/>
<polyline fill="none" stroke="gray" points="780,-226 780,-1363 "/>
<path fill="none" stroke="gray" d="M780,-1363C780,-1369 774,-1375 768,-1375"/>
<polyline fill="none" stroke="gray" points="768,-1375 274,-1375 "/>
<path fill="none" stroke="gray" d="M274,-1375C268,-1375 262,-1369 262,-1363"/>
<polyline fill="none" stroke="gray" points="262,-1363 262,-226 "/>
<path fill="none" stroke="gray" d="M262,-226C262,-220 268,-214 274,-214"/>
<text text-anchor="middle" x="521" y="-1361.1" font-family="Times Roman,serif" font-size="11.00" fill="gray">Klein</text>
</g>
<g id="graph3" class="cluster"><title>cluster_Klein\DataCollection</title>
<polyline fill="none" stroke="gray" points="312,-1107 760,-1107 "/>
<path fill="none" stroke="gray" d="M760,-1107C766,-1107 772,-1113 772,-1119"/>
<polyline fill="none" stroke="gray" points="772,-1119 772,-1332 "/>
<path fill="none" stroke="gray" d="M772,-1332C772,-1338 766,-1344 760,-1344"/>
<polyline fill="none" stroke="gray" points="760,-1344 312,-1344 "/>
<path fill="none" stroke="gray" d="M312,-1344C306,-1344 300,-1338 300,-1332"/>
<polyline fill="none" stroke="gray" points="300,-1332 300,-1119 "/>
<path fill="none" stroke="gray" d="M300,-1119C300,-1113 306,-1107 312,-1107"/>
<text text-anchor="middle" x="536" y="-1330.1" font-family="Times Roman,serif" font-size="11.00" fill="gray">DataCollection</text>
</g>
<g id="graph4" class="cluster"><title>cluster_Klein\Exceptions</title>
<polyline fill="none" stroke="gray" points="282,-700 760,-700 "/>
<path fill="none" stroke="gray" d="M760,-700C766,-700 772,-706 772,-712"/>
<polyline fill="none" stroke="gray" points="772,-712 772,-1087 "/>
<path fill="none" stroke="gray" d="M772,-1087C772,-1093 766,-1099 760,-1099"/>
<polyline fill="none" stroke="gray" points="760,-1099 282,-1099 "/>
<path fill="none" stroke="gray" d="M282,-1099C276,-1099 270,-1093 270,-1087"/>
<polyline fill="none" stroke="gray" points="270,-1087 270,-712 "/>
<path fill="none" stroke="gray" d="M270,-712C270,-706 276,-700 282,-700"/>
<text text-anchor="middle" x="521" y="-1085.1" font-family="Times Roman,serif" font-size="11.00" fill="gray">Exceptions</text>
</g>
<!-- \\Klein\\DataCollection\\DataCollection -->
<g id="node3" class="node"><title>\\Klein\\DataCollection\\DataCollection</title>
<a xlink:href="DataCollection.DataCollection.html" xlink:title="DataCollection" target="_parent">
<polygon fill="none" stroke="black" points="419,-1232 309,-1232 309,-1196 419,-1196 419,-1232"/>
<text text-anchor="middle" x="364" y="-1211.1" font-family="Courier,monospace" font-size="11.00">DataCollection</text>
</a>
</g>
<!-- \\IteratorAggregate -->
<g id="node42" class="node"><title>\\IteratorAggregate</title>
<ellipse fill="none" stroke="black" cx="85" cy="-1270" rx="84.8528" ry="19.0919"/>
<text text-anchor="middle" x="85" y="-1266.9" font-family="Times Roman,serif" font-size="14.00" fill="gray">\\IteratorAggregate</text>
</g>
<!-- \\Klein\\DataCollection\\DataCollection&#45;&gt;\\IteratorAggregate -->
<g id="edge27" class="edge"><title>\\Klein\\DataCollection\\DataCollection&#45;&gt;\\IteratorAggregate</title>
<path fill="none" stroke="black" stroke-dasharray="1,5" d="M308.211,-1225.2C265.157,-1233.84 205.221,-1245.87 158.297,-1255.29"/>
<polygon fill="none" stroke="black" points="157.608,-1251.86 148.492,-1257.26 158.985,-1258.72 157.608,-1251.86"/>
</g>
<!-- \\ArrayAccess -->
<g id="node44" class="node"><title>\\ArrayAccess</title>
<ellipse fill="none" stroke="black" cx="85" cy="-1214" rx="65.9683" ry="19.0919"/>
<text text-anchor="middle" x="85" y="-1210.9" font-family="Times Roman,serif" font-size="14.00" fill="gray">\\ArrayAccess</text>
</g>
<!-- \\Klein\\DataCollection\\DataCollection&#45;&gt;\\ArrayAccess -->
<g id="edge29" class="edge"><title>\\Klein\\DataCollection\\DataCollection&#45;&gt;\\ArrayAccess</title>
<path fill="none" stroke="black" stroke-dasharray="1,5" d="M308.211,-1214C266.136,-1214 207.938,-1214 161.518,-1214"/>
<polygon fill="none" stroke="black" points="161.501,-1210.5 151.501,-1214 161.501,-1217.5 161.501,-1210.5"/>
</g>
<!-- \\Countable -->
<g id="node46" class="node"><title>\\Countable</title>
<ellipse fill="none" stroke="black" cx="85" cy="-1158" rx="56.0679" ry="19.0919"/>
<text text-anchor="middle" x="85" y="-1154.9" font-family="Times Roman,serif" font-size="14.00" fill="gray">\\Countable</text>
</g>
<!-- \\Klein\\DataCollection\\DataCollection&#45;&gt;\\Countable -->
<g id="edge31" class="edge"><title>\\Klein\\DataCollection\\DataCollection&#45;&gt;\\Countable</title>
<path fill="none" stroke="black" stroke-dasharray="1,5" d="M308.211,-1202.8C260.554,-1193.24 192.215,-1179.52 143.731,-1169.79"/>
<polygon fill="none" stroke="black" points="144.195,-1166.31 133.702,-1167.78 142.817,-1173.17 144.195,-1166.31"/>
</g>
<!-- \\Klein\\DataCollection\\HeaderDataCollection -->
<g id="node4" class="node"><title>\\Klein\\DataCollection\\HeaderDataCollection</title>
<a xlink:href="DataCollection.HeaderDataCollection.html" xlink:title="HeaderDataCollection" target="_parent">
<polygon fill="none" stroke="black" points="737,-1313 585,-1313 585,-1277 737,-1277 737,-1313"/>
<text text-anchor="middle" x="661" y="-1292.1" font-family="Courier,monospace" font-size="11.00">HeaderDataCollection</text>
</a>
</g>
<!-- \\Klein\\DataCollection\\HeaderDataCollection&#45;&gt;\\Klein\\DataCollection\\DataCollection -->
<g id="edge5" class="edge"><title>\\Klein\\DataCollection\\HeaderDataCollection&#45;&gt;\\Klein\\DataCollection\\DataCollection</title>
<path fill="none" stroke="black" d="M591.706,-1276.99C580.432,-1274.01 568.886,-1270.94 558,-1268 515.09,-1256.4 466.952,-1243.01 429.362,-1232.46"/>
<polygon fill="none" stroke="black" points="430.123,-1229.04 419.549,-1229.7 428.23,-1235.78 430.123,-1229.04"/>
</g>
<!-- \\Klein\\DataCollection\\ResponseCookieDataCollection -->
<g id="node5" class="node"><title>\\Klein\\DataCollection\\ResponseCookieDataCollection</title>
<a xlink:href="DataCollection.ResponseCookieDataCollection.html" xlink:title="ResponseCookieDataCollection" target="_parent">
<polygon fill="none" stroke="black" points="764,-1259 558,-1259 558,-1223 764,-1223 764,-1259"/>
<text text-anchor="middle" x="661" y="-1238.1" font-family="Courier,monospace" font-size="11.00">ResponseCookieDataCollection</text>
</a>
</g>
<!-- \\Klein\\DataCollection\\ResponseCookieDataCollection&#45;&gt;\\Klein\\DataCollection\\DataCollection -->
<g id="edge7" class="edge"><title>\\Klein\\DataCollection\\ResponseCookieDataCollection&#45;&gt;\\Klein\\DataCollection\\DataCollection</title>
<path fill="none" stroke="black" d="M557.957,-1231.63C515.537,-1227.78 467.639,-1223.42 430.056,-1220.01"/>
<polygon fill="none" stroke="black" points="430.018,-1216.49 419.742,-1219.07 429.384,-1223.46 430.018,-1216.49"/>
</g>
<!-- \\Klein\\DataCollection\\RouteCollection -->
<g id="node6" class="node"><title>\\Klein\\DataCollection\\RouteCollection</title>
<a xlink:href="DataCollection.RouteCollection.html" xlink:title="RouteCollection" target="_parent">
<polygon fill="none" stroke="black" points="720,-1205 602,-1205 602,-1169 720,-1169 720,-1205"/>
<text text-anchor="middle" x="661" y="-1184.1" font-family="Courier,monospace" font-size="11.00">RouteCollection</text>
</a>
</g>
<!-- \\Klein\\DataCollection\\RouteCollection&#45;&gt;\\Klein\\DataCollection\\DataCollection -->
<g id="edge9" class="edge"><title>\\Klein\\DataCollection\\RouteCollection&#45;&gt;\\Klein\\DataCollection\\DataCollection</title>
<path fill="none" stroke="black" d="M601.967,-1192.37C552.327,-1196.88 481.422,-1203.33 429.932,-1208.01"/>
<polygon fill="none" stroke="black" points="429.547,-1204.53 419.905,-1208.92 430.181,-1211.5 429.547,-1204.53"/>
</g>
<!-- \\Klein\\DataCollection\\ServerDataCollection -->
<g id="node7" class="node"><title>\\Klein\\DataCollection\\ServerDataCollection</title>
<a xlink:href="DataCollection.ServerDataCollection.html" xlink:title="ServerDataCollection" target="_parent">
<polygon fill="none" stroke="black" points="737,-1151 585,-1151 585,-1115 737,-1115 737,-1151"/>
<text text-anchor="middle" x="661" y="-1130.1" font-family="Courier,monospace" font-size="11.00">ServerDataCollection</text>
</a>
</g>
<!-- \\Klein\\DataCollection\\ServerDataCollection&#45;&gt;\\Klein\\DataCollection\\DataCollection -->
<g id="edge11" class="edge"><title>\\Klein\\DataCollection\\ServerDataCollection&#45;&gt;\\Klein\\DataCollection\\DataCollection</title>
<path fill="none" stroke="black" d="M591.706,-1151.01C580.432,-1153.99 568.886,-1157.06 558,-1160 515.09,-1171.6 466.952,-1184.99 429.362,-1195.54"/>
<polygon fill="none" stroke="black" points="428.23,-1192.22 419.549,-1198.3 430.123,-1198.96 428.23,-1192.22"/>
</g>
<!-- \\Klein\\Exceptions\\DispatchHaltedException -->
<g id="node9" class="node"><title>\\Klein\\Exceptions\\DispatchHaltedException</title>
<a xlink:href="Exceptions.DispatchHaltedException.html" xlink:title="DispatchHaltedException" target="_parent">
<polygon fill="none" stroke="black" points="747,-960 575,-960 575,-924 747,-924 747,-960"/>
<text text-anchor="middle" x="661" y="-939.1" font-family="Courier,monospace" font-size="11.00">DispatchHaltedException</text>
</a>
</g>
<!-- \\Klein\\Exceptions\\KleinExceptionInterface -->
<g id="node11" class="node"><title>\\Klein\\Exceptions\\KleinExceptionInterface</title>
<a xlink:href="Exceptions.KleinExceptionInterface.html" xlink:title="KleinExceptionInterface" target="_parent">
<polygon fill="none" stroke="black" points="450,-906 278,-906 278,-870 450,-870 450,-906"/>
<text text-anchor="middle" x="364" y="-885.1" font-family="Courier,monospace" font-size="11.00">KleinExceptionInterface</text>
</a>
</g>
<!-- \\Klein\\Exceptions\\DispatchHaltedException&#45;&gt;\\Klein\\Exceptions\\KleinExceptionInterface -->
<g id="edge33" class="edge"><title>\\Klein\\Exceptions\\DispatchHaltedException&#45;&gt;\\Klein\\Exceptions\\KleinExceptionInterface</title>
<path fill="none" stroke="black" stroke-dasharray="1,5" d="M574.696,-926.308C538.846,-919.79 497.093,-912.199 460.256,-905.501"/>
<polygon fill="none" stroke="black" points="460.47,-901.983 450.005,-903.637 459.218,-908.87 460.47,-901.983"/>
</g>
<!-- \\RuntimeException -->
<g id="node31" class="node"><title>\\RuntimeException</title>
<ellipse fill="none" stroke="black" cx="364" cy="-187" rx="85.7684" ry="19.0919"/>
<text text-anchor="middle" x="364" y="-183.9" font-family="Times Roman,serif" font-size="14.00" fill="gray">\RuntimeException</text>
</g>
<!-- \\Klein\\Exceptions\\DispatchHaltedException&#45;&gt;\\RuntimeException -->
<g id="edge13" class="edge"><title>\\Klein\\Exceptions\\DispatchHaltedException&#45;&gt;\\RuntimeException</title>
<path fill="none" stroke="black" d="M574.963,-927.392C568.746,-924.038 562.977,-919.957 558,-915 531.973,-889.079 402.213,-347.961 370.838,-215.885"/>
<polygon fill="none" stroke="black" points="374.224,-214.994 368.509,-206.073 367.413,-216.611 374.224,-214.994"/>
</g>
<!-- \\Klein\\Exceptions\\DuplicateServiceException -->
<g id="node10" class="node"><title>\\Klein\\Exceptions\\DuplicateServiceException</title>
<a xlink:href="Exceptions.DuplicateServiceException.html" xlink:title="DuplicateServiceException" target="_parent">
<polygon fill="none" stroke="black" points="753,-852 569,-852 569,-816 753,-816 753,-852"/>
<text text-anchor="middle" x="661" y="-831.1" font-family="Courier,monospace" font-size="11.00">DuplicateServiceException</text>
</a>
</g>
<!-- \\Klein\\Exceptions\\DuplicateServiceException&#45;&gt;\\Klein\\Exceptions\\KleinExceptionInterface -->
<g id="edge35" class="edge"><title>\\Klein\\Exceptions\\DuplicateServiceException&#45;&gt;\\Klein\\Exceptions\\KleinExceptionInterface</title>
<path fill="none" stroke="black" stroke-dasharray="1,5" d="M568.37,-850.982C541.778,-855.845 512.742,-861.144 486,-866 477.615,-867.523 468.905,-869.101 460.171,-870.68"/>
<polygon fill="none" stroke="black" points="459.534,-867.239 450.316,-872.462 460.779,-874.127 459.534,-867.239"/>
</g>
<!-- \\OverflowException -->
<g id="node33" class="node"><title>\\OverflowException</title>
<ellipse fill="none" stroke="black" cx="364" cy="-131" rx="89.8026" ry="19.0919"/>
<text text-anchor="middle" x="364" y="-127.9" font-family="Times Roman,serif" font-size="14.00" fill="gray">\OverflowException</text>
</g>
<!-- \\Klein\\Exceptions\\DuplicateServiceException&#45;&gt;\\OverflowException -->
<g id="edge15" class="edge"><title>\\Klein\\Exceptions\\DuplicateServiceException&#45;&gt;\\OverflowException</title>
<path fill="none" stroke="black" d="M568.135,-816.265C564.435,-813.569 561.021,-810.497 558,-807 368.558,-587.729 678.792,-375.331 486,-159 478.694,-150.802 469.519,-144.749 459.497,-140.315"/>
<polygon fill="none" stroke="black" points="460.675,-137.018 450.085,-136.682 458.154,-143.548 460.675,-137.018"/>
</g>
<!-- \\Klein\\Exceptions\\LockedResponseException -->
<g id="node12" class="node"><title>\\Klein\\Exceptions\\LockedResponseException</title>
<a xlink:href="Exceptions.LockedResponseException.html" xlink:title="LockedResponseException" target="_parent">
<polygon fill="none" stroke="black" points="747,-906 575,-906 575,-870 747,-870 747,-906"/>
<text text-anchor="middle" x="661" y="-885.1" font-family="Courier,monospace" font-size="11.00">LockedResponseException</text>
</a>
</g>
<!-- \\Klein\\Exceptions\\LockedResponseException&#45;&gt;\\Klein\\Exceptions\\KleinExceptionInterface -->
<g id="edge37" class="edge"><title>\\Klein\\Exceptions\\LockedResponseException&#45;&gt;\\Klein\\Exceptions\\KleinExceptionInterface</title>
<path fill="none" stroke="black" stroke-dasharray="1,5" d="M574.696,-888C538.846,-888 497.093,-888 460.256,-888"/>
<polygon fill="none" stroke="black" points="460.005,-884.5 450.005,-888 460.005,-891.5 460.005,-884.5"/>
</g>
<!-- \\Klein\\Exceptions\\LockedResponseException&#45;&gt;\\RuntimeException -->
<g id="edge17" class="edge"><title>\\Klein\\Exceptions\\LockedResponseException&#45;&gt;\\RuntimeException</title>
<path fill="none" stroke="black" d="M574.577,-873.02C568.525,-869.74 562.894,-865.778 558,-861 509.535,-813.679 398.753,-339.41 370.602,-216.149"/>
<polygon fill="none" stroke="black" points="373.988,-215.258 368.354,-206.285 367.163,-216.813 373.988,-215.258"/>
</g>
<!-- \\Klein\\Exceptions\\ResponseAlreadySentException -->
<g id="node13" class="node"><title>\\Klein\\Exceptions\\ResponseAlreadySentException</title>
<a xlink:href="Exceptions.ResponseAlreadySentException.html" xlink:title="ResponseAlreadySentException" target="_parent">
<polygon fill="none" stroke="black" points="764,-1068 558,-1068 558,-1032 764,-1032 764,-1068"/>
<text text-anchor="middle" x="661" y="-1047.1" font-family="Courier,monospace" font-size="11.00">ResponseAlreadySentException</text>
</a>
</g>
<!-- \\Klein\\Exceptions\\ResponseAlreadySentException&#45;&gt;\\Klein\\Exceptions\\KleinExceptionInterface -->
<g id="edge39" class="edge"><title>\\Klein\\Exceptions\\ResponseAlreadySentException&#45;&gt;\\Klein\\Exceptions\\KleinExceptionInterface</title>
<path fill="none" stroke="black" stroke-dasharray="1,5" d="M580.733,-1031.94C572.918,-1029.3 565.218,-1026.33 558,-1023 493.915,-993.442 428.374,-942.665 392.259,-912.523"/>
<polygon fill="none" stroke="black" points="394.486,-909.822 384.583,-906.056 389.976,-915.176 394.486,-909.822"/>
</g>
<!-- \\Klein\\Exceptions\\ResponseAlreadySentException&#45;&gt;\\RuntimeException -->
<g id="edge19" class="edge"><title>\\Klein\\Exceptions\\ResponseAlreadySentException&#45;&gt;\\RuntimeException</title>
<path fill="none" stroke="black" d="M568.578,-1031.86C564.762,-1029.27 561.203,-1026.33 558,-1023 454.878,-915.707 519.345,-841.031 486,-696 443.995,-513.303 390.464,-294.518 371.261,-216.45"/>
<polygon fill="none" stroke="black" points="374.572,-215.26 368.784,-206.386 367.775,-216.933 374.572,-215.26"/>
</g>
<!-- \\Klein\\Exceptions\\UnhandledException -->
<g id="node14" class="node"><title>\\Klein\\Exceptions\\UnhandledException</title>
<a xlink:href="Exceptions.UnhandledException.html" xlink:title="UnhandledException" target="_parent">
<polygon fill="none" stroke="black" points="730,-1014 592,-1014 592,-978 730,-978 730,-1014"/>
<text text-anchor="middle" x="661" y="-993.1" font-family="Courier,monospace" font-size="11.00">UnhandledException</text>
</a>
</g>
<!-- \\Klein\\Exceptions\\UnhandledException&#45;&gt;\\Klein\\Exceptions\\KleinExceptionInterface -->
<g id="edge41" class="edge"><title>\\Klein\\Exceptions\\UnhandledException&#45;&gt;\\Klein\\Exceptions\\KleinExceptionInterface</title>
<path fill="none" stroke="black" stroke-dasharray="1,5" d="M591.904,-979.307C580.498,-976.146 568.858,-972.67 558,-969 507.318,-951.869 451.074,-927.801 412.252,-910.356"/>
<polygon fill="none" stroke="black" points="413.326,-907 402.772,-906.071 410.443,-913.379 413.326,-907"/>
</g>
<!-- \\Klein\\Exceptions\\UnhandledException&#45;&gt;\\RuntimeException -->
<g id="edge21" class="edge"><title>\\Klein\\Exceptions\\UnhandledException&#45;&gt;\\RuntimeException</title>
<path fill="none" stroke="black" d="M591.818,-988.714C579.248,-984.579 567.219,-978.342 558,-969 551.057,-961.965 405.037,-357.309 371.033,-216.206"/>
<polygon fill="none" stroke="black" points="374.353,-215.042 368.608,-206.14 367.547,-216.682 374.353,-215.042"/>
</g>
<!-- \\Klein\\Exceptions\\UnknownServiceException -->
<g id="node15" class="node"><title>\\Klein\\Exceptions\\UnknownServiceException</title>
<a xlink:href="Exceptions.UnknownServiceException.html" xlink:title="UnknownServiceException" target="_parent">
<polygon fill="none" stroke="black" points="747,-798 575,-798 575,-762 747,-762 747,-798"/>
<text text-anchor="middle" x="661" y="-777.1" font-family="Courier,monospace" font-size="11.00">UnknownServiceException</text>
</a>
</g>
<!-- \\Klein\\Exceptions\\UnknownServiceException&#45;&gt;\\Klein\\Exceptions\\KleinExceptionInterface -->
<g id="edge43" class="edge"><title>\\Klein\\Exceptions\\UnknownServiceException&#45;&gt;\\Klein\\Exceptions\\KleinExceptionInterface</title>
<path fill="none" stroke="black" stroke-dasharray="1,5" d="M578.828,-798.056C571.632,-800.674 564.588,-803.642 558,-807 521.141,-825.789 523.563,-848.661 486,-866 477.749,-869.809 468.9,-872.96 459.875,-875.566"/>
<polygon fill="none" stroke="black" points="458.797,-872.231 450.034,-878.186 460.598,-878.995 458.797,-872.231"/>
</g>
<!-- \\OutOfBoundsException -->
<g id="node38" class="node"><title>\\OutOfBoundsException</title>
<ellipse fill="none" stroke="black" cx="364" cy="-75" rx="106.773" ry="19.0919"/>
<text text-anchor="middle" x="364" y="-71.9" font-family="Times Roman,serif" font-size="14.00" fill="gray">\OutOfBoundsException</text>
</g>
<!-- \\Klein\\Exceptions\\UnknownServiceException&#45;&gt;\\OutOfBoundsException -->
<g id="edge23" class="edge"><title>\\Klein\\Exceptions\\UnknownServiceException&#45;&gt;\\OutOfBoundsException</title>
<path fill="none" stroke="black" d="M574.601,-766.45C568.38,-762.877 562.712,-758.456 558,-753 368.018,-533.028 679.343,-320.023 486,-103 480.715,-97.0674 474.451,-92.2582 467.595,-88.3726"/>
<polygon fill="none" stroke="black" points="469.139,-85.2314 458.624,-83.9298 466.032,-91.5043 469.139,-85.2314"/>
</g>
<!-- \\Klein\\Exceptions\\ValidationException -->
<g id="node16" class="node"><title>\\Klein\\Exceptions\\ValidationException</title>
<a xlink:href="Exceptions.ValidationException.html" xlink:title="ValidationException" target="_parent">
<polygon fill="none" stroke="black" points="733,-744 589,-744 589,-708 733,-708 733,-744"/>
<text text-anchor="middle" x="661" y="-723.1" font-family="Courier,monospace" font-size="11.00">ValidationException</text>
</a>
</g>
<!-- \\Klein\\Exceptions\\ValidationException&#45;&gt;\\Klein\\Exceptions\\KleinExceptionInterface -->
<g id="edge45" class="edge"><title>\\Klein\\Exceptions\\ValidationException&#45;&gt;\\Klein\\Exceptions\\KleinExceptionInterface</title>
<path fill="none" stroke="black" stroke-dasharray="1,5" d="M588.351,-737.662C577.556,-741.429 567.038,-746.412 558,-753 509.879,-788.081 535.451,-832.821 486,-866 478.041,-871.34 469.16,-875.488 459.918,-878.696"/>
<polygon fill="none" stroke="black" points="458.697,-875.41 450.179,-881.711 460.767,-882.097 458.697,-875.41"/>
</g>
<!-- \\UnexpectedValueException -->
<g id="node40" class="node"><title>\\UnexpectedValueException</title>
<ellipse fill="none" stroke="black" cx="364" cy="-19" rx="121.122" ry="19.0919"/>
<text text-anchor="middle" x="364" y="-15.9" font-family="Times Roman,serif" font-size="14.00" fill="gray">\UnexpectedValueException</text>
</g>
<!-- \\Klein\\Exceptions\\ValidationException&#45;&gt;\\UnexpectedValueException -->
<g id="edge25" class="edge"><title>\\Klein\\Exceptions\\ValidationException&#45;&gt;\\UnexpectedValueException</title>
<path fill="none" stroke="black" d="M588.378,-722.431C576.856,-718.754 566.091,-712.955 558,-704 361.069,-486.041 681.272,-266.446 486,-47 481.928,-42.4239 477.274,-38.5161 472.215,-35.1848"/>
<polygon fill="none" stroke="black" points="473.767,-32.0403 463.35,-30.1068 470.287,-38.1144 473.767,-32.0403"/>
</g>
<!-- \\Klein\\App -->
<g id="node17" class="node"><title>\\Klein\\App</title>
<a xlink:href="App.html" xlink:title="App" target="_parent">
<polygon fill="none" stroke="black" points="688,-690 634,-690 634,-654 688,-654 688,-690"/>
<text text-anchor="middle" x="661" y="-669.1" font-family="Courier,monospace" font-size="11.00">App</text>
</a>
</g>
<!-- \\Klein\\HttpStatus -->
<g id="node18" class="node"><title>\\Klein\\HttpStatus</title>
<a xlink:href="HttpStatus.html" xlink:title="HttpStatus" target="_parent">
<polygon fill="none" stroke="black" points="703,-636 619,-636 619,-600 703,-600 703,-636"/>
<text text-anchor="middle" x="661" y="-615.1" font-family="Courier,monospace" font-size="11.00">HttpStatus</text>
</a>
</g>
<!-- \\Klein\\Klein -->
<g id="node19" class="node"><title>\\Klein\\Klein</title>
<a xlink:href="Klein.html" xlink:title="Klein" target="_parent">
<polygon fill="none" stroke="black" points="688,-582 634,-582 634,-546 688,-546 688,-582"/>
<text text-anchor="middle" x="661" y="-561.1" font-family="Courier,monospace" font-size="11.00">Klein</text>
</a>
</g>
<!-- \\Klein\\Request -->
<g id="node20" class="node"><title>\\Klein\\Request</title>
<a xlink:href="Request.html" xlink:title="Request" target="_parent">
<polygon fill="none" stroke="black" points="693,-528 629,-528 629,-492 693,-492 693,-528"/>
<text text-anchor="middle" x="661" y="-507.1" font-family="Courier,monospace" font-size="11.00">Request</text>
</a>
</g>
<!-- \\Klein\\Response -->
<g id="node21" class="node"><title>\\Klein\\Response</title>
<a xlink:href="Response.html" xlink:title="Response" target="_parent">
<polygon fill="none" stroke="black" points="696,-474 626,-474 626,-438 696,-438 696,-474"/>
<text text-anchor="middle" x="661" y="-453.1" font-family="Courier,monospace" font-size="11.00">Response</text>
</a>
</g>
<!-- \\Klein\\ResponseCookie -->
<g id="node22" class="node"><title>\\Klein\\ResponseCookie</title>
<a xlink:href="ResponseCookie.html" xlink:title="ResponseCookie" target="_parent">
<polygon fill="none" stroke="black" points="716,-420 606,-420 606,-384 716,-384 716,-420"/>
<text text-anchor="middle" x="661" y="-399.1" font-family="Courier,monospace" font-size="11.00">ResponseCookie</text>
</a>
</g>
<!-- \\Klein\\Route -->
<g id="node23" class="node"><title>\\Klein\\Route</title>
<a xlink:href="Route.html" xlink:title="Route" target="_parent">
<polygon fill="none" stroke="black" points="688,-366 634,-366 634,-330 688,-330 688,-366"/>
<text text-anchor="middle" x="661" y="-345.1" font-family="Courier,monospace" font-size="11.00">Route</text>
</a>
</g>
<!-- \\Klein\\ServiceProvider -->
<g id="node24" class="node"><title>\\Klein\\ServiceProvider</title>
<a xlink:href="ServiceProvider.html" xlink:title="ServiceProvider" target="_parent">
<polygon fill="none" stroke="black" points="720,-312 602,-312 602,-276 720,-276 720,-312"/>
<text text-anchor="middle" x="661" y="-291.1" font-family="Courier,monospace" font-size="11.00">ServiceProvider</text>
</a>
</g>
<!-- \\Klein\\Validator -->
<g id="node25" class="node"><title>\\Klein\\Validator</title>
<a xlink:href="Validator.html" xlink:title="Validator" target="_parent">
<polygon fill="none" stroke="black" points="699,-258 623,-258 623,-222 699,-222 699,-258"/>
<text text-anchor="middle" x="661" y="-237.1" font-family="Courier,monospace" font-size="11.00">Validator</text>
</a>
</g>
</g>
</svg>
