<?xml version="1.0" encoding="UTF-8" standalone="no"?>
<!DOCTYPE svg PUBLIC "-//W3C//DTD SVG 1.1//EN"
 "http://www.w3.org/Graphics/SVG/1.1/DTD/svg11.dtd">
<!-- Generated by graphviz version 2.26.0 (20091210.2329)
 -->
<!-- Title: G Pages: 1 -->
<svg width="796pt" height="1229pt"
 viewBox="0.00 0.00 796.00 1229.00" xmlns="http://www.w3.org/2000/svg" xmlns:xlink="http://www.w3.org/1999/xlink">
<g id="graph1" class="graph" transform="scale(1 1) rotate(0) translate(4 1225)">
<title>G</title>
<polygon fill="white" stroke="white" points="-4,5 -4,-1225 793,-1225 793,5 -4,5"/>
<g id="graph2" class="cluster"><title>cluster_Klein</title>
<polyline fill="none" stroke="gray" points="274,-214 768,-214 "/>
<path fill="none" stroke="gray" d="M768,-214C774,-214 780,-220 780,-226"/>
<polyline fill="none" stroke="gray" points="780,-226 780,-1201 "/>
<path fill="none" stroke="gray" d="M780,-1201C780,-1207 774,-1213 768,-1213"/>
<polyline fill="none" stroke="gray" points="768,-1213 274,-1213 "/>
<path fill="none" stroke="gray" d="M274,-1213C268,-1213 262,-1207 262,-1201"/>
<polyline fill="none" stroke="gray" points="262,-1201 262,-226 "/>
<path fill="none" stroke="gray" d="M262,-226C262,-220 268,-214 274,-214"/>
<text text-anchor="middle" x="521" y="-1199.1" font-family="Times Roman,serif" font-size="11.00" fill="gray">Klein</text>
</g>
<g id="graph3" class="cluster"><title>cluster_Klein\DataCollection</title>
<polyline fill="none" stroke="gray" points="312,-999 760,-999 "/>
<path fill="none" stroke="gray" d="M760,-999C766,-999 772,-1005 772,-1011"/>
<polyline fill="none" stroke="gray" points="772,-1011 772,-1170 "/>
<path fill="none" stroke="gray" d="M772,-1170C772,-1176 766,-1182 760,-1182"/>
<polyline fill="none" stroke="gray" points="760,-1182 312,-1182 "/>
<path fill="none" stroke="gray" d="M312,-1182C306,-1182 300,-1176 300,-1170"/>
<polyline fill="none" stroke="gray" points="300,-1170 300,-1011 "/>
<path fill="none" stroke="gray" d="M300,-1011C300,-1005 306,-999 312,-999"/>
<text text-anchor="middle" x="536" y="-1168.1" font-family="Times Roman,serif" font-size="11.00" fill="gray">DataCollection</text>
</g>
<g id="graph4" class="cluster"><title>cluster_Klein\Exceptions</title>
<polyline fill="none" stroke="gray" points="282,-646 760,-646 "/>
<path fill="none" stroke="gray" d="M760,-646C766,-646 772,-652 772,-658"/>
<polyline fill="none" stroke="gray" points="772,-658 772,-979 "/>
<path fill="none" stroke="gray" d="M772,-979C772,-985 766,-991 760,-991"/>
<polyline fill="none" stroke="gray" points="760,-991 282,-991 "/>
<path fill="none" stroke="gray" d="M282,-991C276,-991 270,-985 270,-979"/>
<polyline fill="none" stroke="gray" points="270,-979 270,-658 "/>
<path fill="none" stroke="gray" d="M270,-658C270,-652 276,-646 282,-646"/>
<text text-anchor="middle" x="521" y="-977.1" font-family="Times Roman,serif" font-size="11.00" fill="gray">Exceptions</text>
</g>
<!-- \\Klein\\DataCollection\\DataCollection -->
<g id="node3" class="node"><title>\\Klein\\DataCollection\\DataCollection</title>
<a xlink:href="DataCollection.DataCollection.html" xlink:title="DataCollection" target="_parent">
<polygon fill="none" stroke="black" points="419,-1097 309,-1097 309,-1061 419,-1061 419,-1097"/>
<text text-anchor="middle" x="364" y="-1076.1" font-family="Courier,monospace" font-size="11.00">DataCollection</text>
</a>
</g>
<!-- \\IteratorAggregate -->
<g id="node37" class="node"><title>\\IteratorAggregate</title>
<ellipse fill="none" stroke="black" cx="85" cy="-1135" rx="84.8528" ry="19.0919"/>
<text text-anchor="middle" x="85" y="-1131.9" font-family="Times Roman,serif" font-size="14.00" fill="gray">\\IteratorAggregate</text>
</g>
<!-- \\Klein\\DataCollection\\DataCollection&#45;&gt;\\IteratorAggregate -->
<g id="edge23" class="edge"><title>\\Klein\\DataCollection\\DataCollection&#45;&gt;\\IteratorAggregate</title>
<path fill="none" stroke="black" stroke-dasharray="1,5" d="M308.211,-1090.2C265.157,-1098.84 205.221,-1110.87 158.297,-1120.29"/>
<polygon fill="none" stroke="black" points="157.608,-1116.86 148.492,-1122.26 158.985,-1123.72 157.608,-1116.86"/>
</g>
<!-- \\ArrayAccess -->
<g id="node39" class="node"><title>\\ArrayAccess</title>
<ellipse fill="none" stroke="black" cx="85" cy="-1079" rx="65.9683" ry="19.0919"/>
<text text-anchor="middle" x="85" y="-1075.9" font-family="Times Roman,serif" font-size="14.00" fill="gray">\\ArrayAccess</text>
</g>
<!-- \\Klein\\DataCollection\\DataCollection&#45;&gt;\\ArrayAccess -->
<g id="edge25" class="edge"><title>\\Klein\\DataCollection\\DataCollection&#45;&gt;\\ArrayAccess</title>
<path fill="none" stroke="black" stroke-dasharray="1,5" d="M308.211,-1079C266.136,-1079 207.938,-1079 161.518,-1079"/>
<polygon fill="none" stroke="black" points="161.501,-1075.5 151.501,-1079 161.501,-1082.5 161.501,-1075.5"/>
</g>
<!-- \\Countable -->
<g id="node41" class="node"><title>\\Countable</title>
<ellipse fill="none" stroke="black" cx="85" cy="-1023" rx="56.0679" ry="19.0919"/>
<text text-anchor="middle" x="85" y="-1019.9" font-family="Times Roman,serif" font-size="14.00" fill="gray">\\Countable</text>
</g>
<!-- \\Klein\\DataCollection\\DataCollection&#45;&gt;\\Countable -->
<g id="edge27" class="edge"><title>\\Klein\\DataCollection\\DataCollection&#45;&gt;\\Countable</title>
<path fill="none" stroke="black" stroke-dasharray="1,5" d="M308.211,-1067.8C260.554,-1058.24 192.215,-1044.52 143.731,-1034.79"/>
<polygon fill="none" stroke="black" points="144.195,-1031.31 133.702,-1032.78 142.817,-1038.17 144.195,-1031.31"/>
</g>
<!-- \\Klein\\DataCollection\\HeaderDataCollection -->
<g id="node4" class="node"><title>\\Klein\\DataCollection\\HeaderDataCollection</title>
<a xlink:href="DataCollection.HeaderDataCollection.html" xlink:title="HeaderDataCollection" target="_parent">
<polygon fill="none" stroke="black" points="737,-1097 585,-1097 585,-1061 737,-1061 737,-1097"/>
<text text-anchor="middle" x="661" y="-1076.1" font-family="Courier,monospace" font-size="11.00">HeaderDataCollection</text>
</a>
</g>
<!-- \\Klein\\DataCollection\\HeaderDataCollection&#45;&gt;\\Klein\\DataCollection\\DataCollection -->
<g id="edge5" class="edge"><title>\\Klein\\DataCollection\\HeaderDataCollection&#45;&gt;\\Klein\\DataCollection\\DataCollection</title>
<path fill="none" stroke="black" d="M584.901,-1079C536.965,-1079 475.704,-1079 429.86,-1079"/>
<polygon fill="none" stroke="black" points="429.735,-1075.5 419.735,-1079 429.735,-1082.5 429.735,-1075.5"/>
</g>
<!-- \\Klein\\DataCollection\\ResponseCookieDataCollection -->
<g id="node5" class="node"><title>\\Klein\\DataCollection\\ResponseCookieDataCollection</title>
<a xlink:href="DataCollection.ResponseCookieDataCollection.html" xlink:title="ResponseCookieDataCollection" target="_parent">
<polygon fill="none" stroke="black" points="764,-1043 558,-1043 558,-1007 764,-1007 764,-1043"/>
<text text-anchor="middle" x="661" y="-1022.1" font-family="Courier,monospace" font-size="11.00">ResponseCookieDataCollection</text>
</a>
</g>
<!-- \\Klein\\DataCollection\\ResponseCookieDataCollection&#45;&gt;\\Klein\\DataCollection\\DataCollection -->
<g id="edge7" class="edge"><title>\\Klein\\DataCollection\\ResponseCookieDataCollection&#45;&gt;\\Klein\\DataCollection\\DataCollection</title>
<path fill="none" stroke="black" d="M561.69,-1043.06C518.346,-1050.94 468.699,-1059.96 430.001,-1067"/>
<polygon fill="none" stroke="black" points="429.114,-1063.6 419.902,-1068.84 430.366,-1070.49 429.114,-1063.6"/>
</g>
<!-- \\Klein\\DataCollection\\ServerDataCollection -->
<g id="node6" class="node"><title>\\Klein\\DataCollection\\ServerDataCollection</title>
<a xlink:href="DataCollection.ServerDataCollection.html" xlink:title="ServerDataCollection" target="_parent">
<polygon fill="none" stroke="black" points="737,-1151 585,-1151 585,-1115 737,-1115 737,-1151"/>
<text text-anchor="middle" x="661" y="-1130.1" font-family="Courier,monospace" font-size="11.00">ServerDataCollection</text>
</a>
</g>
<!-- \\Klein\\DataCollection\\ServerDataCollection&#45;&gt;\\Klein\\DataCollection\\DataCollection -->
<g id="edge9" class="edge"><title>\\Klein\\DataCollection\\ServerDataCollection&#45;&gt;\\Klein\\DataCollection\\DataCollection</title>
<path fill="none" stroke="black" d="M584.901,-1119.16C536.965,-1110.45 475.704,-1099.31 429.86,-1090.97"/>
<polygon fill="none" stroke="black" points="430.2,-1087.48 419.735,-1089.13 428.948,-1094.37 430.2,-1087.48"/>
</g>
<!-- \\Klein\\Exceptions\\DuplicateServiceException -->
<g id="node8" class="node"><title>\\Klein\\Exceptions\\DuplicateServiceException</title>
<a xlink:href="Exceptions.DuplicateServiceException.html" xlink:title="DuplicateServiceException" target="_parent">
<polygon fill="none" stroke="black" points="753,-960 569,-960 569,-924 753,-924 753,-960"/>
<text text-anchor="middle" x="661" y="-939.1" font-family="Courier,monospace" font-size="11.00">DuplicateServiceException</text>
</a>
</g>
<!-- \\Klein\\Exceptions\\KleinExceptionInterface -->
<g id="node9" class="node"><title>\\Klein\\Exceptions\\KleinExceptionInterface</title>
<a xlink:href="Exceptions.KleinExceptionInterface.html" xlink:title="KleinExceptionInterface" target="_parent">
<polygon fill="none" stroke="black" points="450,-825 278,-825 278,-789 450,-789 450,-825"/>
<text text-anchor="middle" x="364" y="-804.1" font-family="Courier,monospace" font-size="11.00">KleinExceptionInterface</text>
</a>
</g>
<!-- \\Klein\\Exceptions\\DuplicateServiceException&#45;&gt;\\Klein\\Exceptions\\KleinExceptionInterface -->
<g id="edge29" class="edge"><title>\\Klein\\Exceptions\\DuplicateServiceException&#45;&gt;\\Klein\\Exceptions\\KleinExceptionInterface</title>
<path fill="none" stroke="black" stroke-dasharray="1,5" d="M583.536,-923.96C574.817,-921.264 566.147,-918.275 558,-915 500.053,-891.709 437.752,-854.643 399.816,-830.565"/>
<polygon fill="none" stroke="black" points="401.486,-827.479 391.176,-825.039 397.714,-833.376 401.486,-827.479"/>
</g>
<!-- \\OverflowException -->
<g id="node27" class="node"><title>\\OverflowException</title>
<ellipse fill="none" stroke="black" cx="364" cy="-187" rx="89.8026" ry="19.0919"/>
<text text-anchor="middle" x="364" y="-183.9" font-family="Times Roman,serif" font-size="14.00" fill="gray">\OverflowException</text>
</g>
<!-- \\Klein\\Exceptions\\DuplicateServiceException&#45;&gt;\\OverflowException -->
<g id="edge11" class="edge"><title>\\Klein\\Exceptions\\DuplicateServiceException&#45;&gt;\\OverflowException</title>
<path fill="none" stroke="black" d="M568.743,-923.699C564.884,-921.151 561.27,-918.265 558,-915 469.204,-826.337 518.249,-763.267 486,-642 443.129,-480.791 391.126,-287.628 371.758,-215.769"/>
<polygon fill="none" stroke="black" points="375.124,-214.809 369.142,-206.065 368.365,-216.631 375.124,-214.809"/>
</g>
<!-- \\Klein\\Exceptions\\LockedResponseException -->
<g id="node10" class="node"><title>\\Klein\\Exceptions\\LockedResponseException</title>
<a xlink:href="Exceptions.LockedResponseException.html" xlink:title="LockedResponseException" target="_parent">
<polygon fill="none" stroke="black" points="747,-906 575,-906 575,-870 747,-870 747,-906"/>
<text text-anchor="middle" x="661" y="-885.1" font-family="Courier,monospace" font-size="11.00">LockedResponseException</text>
</a>
</g>
<!-- \\Klein\\Exceptions\\LockedResponseException&#45;&gt;\\Klein\\Exceptions\\KleinExceptionInterface -->
<g id="edge31" class="edge"><title>\\Klein\\Exceptions\\LockedResponseException&#45;&gt;\\Klein\\Exceptions\\KleinExceptionInterface</title>
<path fill="none" stroke="black" stroke-dasharray="1,5" d="M591.706,-869.989C580.432,-867.015 568.886,-863.942 558,-861 518.358,-850.288 474.253,-838.038 438.126,-827.916"/>
<polygon fill="none" stroke="black" points="438.732,-824.451 428.158,-825.121 436.842,-831.191 438.732,-824.451"/>
</g>
<!-- \\RuntimeException -->
<g id="node29" class="node"><title>\\RuntimeException</title>
<ellipse fill="none" stroke="black" cx="364" cy="-131" rx="85.7684" ry="19.0919"/>
<text text-anchor="middle" x="364" y="-127.9" font-family="Times Roman,serif" font-size="14.00" fill="gray">\RuntimeException</text>
</g>
<!-- \\Klein\\Exceptions\\LockedResponseException&#45;&gt;\\RuntimeException -->
<g id="edge13" class="edge"><title>\\Klein\\Exceptions\\LockedResponseException&#45;&gt;\\RuntimeException</title>
<path fill="none" stroke="black" d="M574.553,-874.491C568.342,-870.909 562.69,-866.475 558,-861 353.961,-622.806 693.678,-394.027 486,-159 478.265,-150.246 468.399,-143.934 457.639,-139.425"/>
<polygon fill="none" stroke="black" points="458.577,-136.042 447.983,-135.909 456.183,-142.619 458.577,-136.042"/>
</g>
<!-- \\Klein\\Exceptions\\ResponseAlreadySentException -->
<g id="node11" class="node"><title>\\Klein\\Exceptions\\ResponseAlreadySentException</title>
<a xlink:href="Exceptions.ResponseAlreadySentException.html" xlink:title="ResponseAlreadySentException" target="_parent">
<polygon fill="none" stroke="black" points="764,-852 558,-852 558,-816 764,-816 764,-852"/>
<text text-anchor="middle" x="661" y="-831.1" font-family="Courier,monospace" font-size="11.00">ResponseAlreadySentException</text>
</a>
</g>
<!-- \\Klein\\Exceptions\\ResponseAlreadySentException&#45;&gt;\\Klein\\Exceptions\\KleinExceptionInterface -->
<g id="edge33" class="edge"><title>\\Klein\\Exceptions\\ResponseAlreadySentException&#45;&gt;\\Klein\\Exceptions\\KleinExceptionInterface</title>
<path fill="none" stroke="black" stroke-dasharray="1,5" d="M557.957,-824.632C526.21,-821.746 491.394,-818.581 460.131,-815.739"/>
<polygon fill="none" stroke="black" points="460.389,-812.248 450.113,-814.828 459.755,-819.22 460.389,-812.248"/>
</g>
<!-- \\Klein\\Exceptions\\ResponseAlreadySentException&#45;&gt;\\RuntimeException -->
<g id="edge15" class="edge"><title>\\Klein\\Exceptions\\ResponseAlreadySentException&#45;&gt;\\RuntimeException</title>
<path fill="none" stroke="black" d="M567.693,-815.939C564.162,-813.322 560.901,-810.357 558,-807 368.558,-587.729 678.792,-375.331 486,-159 478.228,-150.279 468.341,-143.986 457.57,-139.486"/>
<polygon fill="none" stroke="black" points="458.502,-136.101 447.907,-135.977 456.112,-142.68 458.502,-136.101"/>
</g>
<!-- \\Klein\\Exceptions\\UnhandledException -->
<g id="node12" class="node"><title>\\Klein\\Exceptions\\UnhandledException</title>
<a xlink:href="Exceptions.UnhandledException.html" xlink:title="UnhandledException" target="_parent">
<polygon fill="none" stroke="black" points="730,-798 592,-798 592,-762 730,-762 730,-798"/>
<text text-anchor="middle" x="661" y="-777.1" font-family="Courier,monospace" font-size="11.00">UnhandledException</text>
</a>
</g>
<!-- \\Klein\\Exceptions\\UnhandledException&#45;&gt;\\Klein\\Exceptions\\KleinExceptionInterface -->
<g id="edge35" class="edge"><title>\\Klein\\Exceptions\\UnhandledException&#45;&gt;\\Klein\\Exceptions\\KleinExceptionInterface</title>
<path fill="none" stroke="black" stroke-dasharray="1,5" d="M591.742,-786.296C552.625,-789.852 503.135,-794.351 460.289,-798.246"/>
<polygon fill="none" stroke="black" points="459.764,-794.78 450.122,-799.171 460.397,-801.751 459.764,-794.78"/>
</g>
<!-- \\Klein\\Exceptions\\UnhandledException&#45;&gt;\\RuntimeException -->
<g id="edge17" class="edge"><title>\\Klein\\Exceptions\\UnhandledException&#45;&gt;\\RuntimeException</title>
<path fill="none" stroke="black" d="M591.952,-773.921C579.061,-769.732 566.873,-763.168 558,-753 383.143,-552.637 663.918,-356.649 486,-159 478.049,-150.167 467.928,-143.83 456.926,-139.326"/>
<polygon fill="none" stroke="black" points="458.1,-136.029 447.506,-135.959 455.744,-142.621 458.1,-136.029"/>
</g>
<!-- \\Klein\\Exceptions\\UnknownServiceException -->
<g id="node13" class="node"><title>\\Klein\\Exceptions\\UnknownServiceException</title>
<a xlink:href="Exceptions.UnknownServiceException.html" xlink:title="UnknownServiceException" target="_parent">
<polygon fill="none" stroke="black" points="747,-744 575,-744 575,-708 747,-708 747,-744"/>
<text text-anchor="middle" x="661" y="-723.1" font-family="Courier,monospace" font-size="11.00">UnknownServiceException</text>
</a>
</g>
<!-- \\Klein\\Exceptions\\UnknownServiceException&#45;&gt;\\Klein\\Exceptions\\KleinExceptionInterface -->
<g id="edge37" class="edge"><title>\\Klein\\Exceptions\\UnknownServiceException&#45;&gt;\\Klein\\Exceptions\\KleinExceptionInterface</title>
<path fill="none" stroke="black" stroke-dasharray="1,5" d="M586.304,-744.05C576.707,-746.816 567.071,-749.819 558,-753 524.955,-764.589 519.471,-774.708 486,-785 477.705,-787.551 468.996,-789.844 460.209,-791.897"/>
<polygon fill="none" stroke="black" points="459.271,-788.52 450.274,-794.114 460.796,-795.352 459.271,-788.52"/>
</g>
<!-- \\OutOfBoundsException -->
<g id="node33" class="node"><title>\\OutOfBoundsException</title>
<ellipse fill="none" stroke="black" cx="364" cy="-75" rx="106.773" ry="19.0919"/>
<text text-anchor="middle" x="364" y="-71.9" font-family="Times Roman,serif" font-size="14.00" fill="gray">\OutOfBoundsException</text>
</g>
<!-- \\Klein\\Exceptions\\UnknownServiceException&#45;&gt;\\OutOfBoundsException -->
<g id="edge19" class="edge"><title>\\Klein\\Exceptions\\UnknownServiceException&#45;&gt;\\OutOfBoundsException</title>
<path fill="none" stroke="black" d="M574.659,-712.4C568.425,-708.837 562.739,-704.433 558,-699 382.603,-497.937 664.469,-301.341 486,-103 480.685,-97.0936 474.4,-92.3032 467.53,-88.4305"/>
<polygon fill="none" stroke="black" points="469.062,-85.2832 458.545,-84.0009 465.966,-91.5618 469.062,-85.2832"/>
</g>
<!-- \\Klein\\Exceptions\\ValidationException -->
<g id="node14" class="node"><title>\\Klein\\Exceptions\\ValidationException</title>
<a xlink:href="Exceptions.ValidationException.html" xlink:title="ValidationException" target="_parent">
<polygon fill="none" stroke="black" points="733,-690 589,-690 589,-654 733,-654 733,-690"/>
<text text-anchor="middle" x="661" y="-669.1" font-family="Courier,monospace" font-size="11.00">ValidationException</text>
</a>
</g>
<!-- \\Klein\\Exceptions\\ValidationException&#45;&gt;\\Klein\\Exceptions\\KleinExceptionInterface -->
<g id="edge39" class="edge"><title>\\Klein\\Exceptions\\ValidationException&#45;&gt;\\Klein\\Exceptions\\KleinExceptionInterface</title>
<path fill="none" stroke="black" stroke-dasharray="1,5" d="M588.255,-684.983C577.648,-688.577 567.211,-693.16 558,-699 515.9,-725.693 529.108,-759.968 486,-785 477.85,-789.733 468.919,-793.49 459.712,-796.467"/>
<polygon fill="none" stroke="black" points="458.654,-793.129 450.038,-799.295 460.619,-799.848 458.654,-793.129"/>
</g>
<!-- \\UnexpectedValueException -->
<g id="node35" class="node"><title>\\UnexpectedValueException</title>
<ellipse fill="none" stroke="black" cx="364" cy="-19" rx="121.122" ry="19.0919"/>
<text text-anchor="middle" x="364" y="-15.9" font-family="Times Roman,serif" font-size="14.00" fill="gray">\UnexpectedValueException</text>
</g>
<!-- \\Klein\\Exceptions\\ValidationException&#45;&gt;\\UnexpectedValueException -->
<g id="edge21" class="edge"><title>\\Klein\\Exceptions\\ValidationException&#45;&gt;\\UnexpectedValueException</title>
<path fill="none" stroke="black" d="M588.45,-668.366C576.92,-664.696 566.134,-658.915 558,-650 376.086,-450.612 666.396,-247.762 486,-47 481.859,-42.3919 477.128,-38.4629 471.989,-35.1189"/>
<polygon fill="none" stroke="black" points="473.415,-31.9042 462.987,-30.0268 469.968,-37.9969 473.415,-31.9042"/>
</g>
<!-- \\Klein\\App -->
<g id="node15" class="node"><title>\\Klein\\App</title>
<a xlink:href="App.html" xlink:title="App" target="_parent">
<polygon fill="none" stroke="black" points="688,-636 634,-636 634,-600 688,-600 688,-636"/>
<text text-anchor="middle" x="661" y="-615.1" font-family="Courier,monospace" font-size="11.00">App</text>
</a>
</g>
<!-- \\Klein\\HttpStatus -->
<g id="node16" class="node"><title>\\Klein\\HttpStatus</title>
<a xlink:href="HttpStatus.html" xlink:title="HttpStatus" target="_parent">
<polygon fill="none" stroke="black" points="703,-582 619,-582 619,-546 703,-546 703,-582"/>
<text text-anchor="middle" x="661" y="-561.1" font-family="Courier,monospace" font-size="11.00">HttpStatus</text>
</a>
</g>
<!-- \\Klein\\Klein -->
<g id="node17" class="node"><title>\\Klein\\Klein</title>
<a xlink:href="Klein.html" xlink:title="Klein" target="_parent">
<polygon fill="none" stroke="black" points="688,-528 634,-528 634,-492 688,-492 688,-528"/>
<text text-anchor="middle" x="661" y="-507.1" font-family="Courier,monospace" font-size="11.00">Klein</text>
</a>
</g>
<!-- \\Klein\\Request -->
<g id="node18" class="node"><title>\\Klein\\Request</title>
<a xlink:href="Request.html" xlink:title="Request" target="_parent">
<polygon fill="none" stroke="black" points="693,-474 629,-474 629,-438 693,-438 693,-474"/>
<text text-anchor="middle" x="661" y="-453.1" font-family="Courier,monospace" font-size="11.00">Request</text>
</a>
</g>
<!-- \\Klein\\Response -->
<g id="node19" class="node"><title>\\Klein\\Response</title>
<a xlink:href="Response.html" xlink:title="Response" target="_parent">
<polygon fill="none" stroke="black" points="696,-420 626,-420 626,-384 696,-384 696,-420"/>
<text text-anchor="middle" x="661" y="-399.1" font-family="Courier,monospace" font-size="11.00">Response</text>
</a>
</g>
<!-- \\Klein\\ResponseCookie -->
<g id="node20" class="node"><title>\\Klein\\ResponseCookie</title>
<a xlink:href="ResponseCookie.html" xlink:title="ResponseCookie" target="_parent">
<polygon fill="none" stroke="black" points="716,-366 606,-366 606,-330 716,-330 716,-366"/>
<text text-anchor="middle" x="661" y="-345.1" font-family="Courier,monospace" font-size="11.00">ResponseCookie</text>
</a>
</g>
<!-- \\Klein\\ServiceProvider -->
<g id="node21" class="node"><title>\\Klein\\ServiceProvider</title>
<a xlink:href="ServiceProvider.html" xlink:title="ServiceProvider" target="_parent">
<polygon fill="none" stroke="black" points="720,-312 602,-312 602,-276 720,-276 720,-312"/>
<text text-anchor="middle" x="661" y="-291.1" font-family="Courier,monospace" font-size="11.00">ServiceProvider</text>
</a>
</g>
<!-- \\Klein\\Validator -->
<g id="node22" class="node"><title>\\Klein\\Validator</title>
<a xlink:href="Validator.html" xlink:title="Validator" target="_parent">
<polygon fill="none" stroke="black" points="699,-258 623,-258 623,-222 699,-222 699,-258"/>
<text text-anchor="middle" x="661" y="-237.1" font-family="Courier,monospace" font-size="11.00">Validator</text>
</a>
</g>
</g>
</svg>
